<svg xmlns="http://www.w3.org/2000/svg" viewBox="0 0 160 160" role="img" aria-label="Whale">
  <rect width="160" height="160" rx="32" fill="none"/>
  <path d="M35 84c12-24 44-36 76-26 16 5 28 16 34 28-8 7-19 10-32 8-7 20-27 35-52 35-22 0-38-12-38-28 0-6 5-13 12-17z" fill="#bdefff"/>
  <path d="M109 59c11-25 30-32 44-17-6 4-10 10-12 18 8-2 15-1 20 4-15 12-35 10-52-5z" fill="#bdefff"/>
  <path d="M42 97c18 13 48 15 71-3-7 20-27 35-52 35-19 0-34-9-38-22 5-1 12-4 19-10z" fill="#7ed5ff"/>
  <circle cx="66" cy="75" r="6" fill="#15364d"/>
  <path d="M78 91c9 8 22 8 31 0" fill="none" stroke="#15364d" stroke-width="5" stroke-linecap="round"/>
  <path d="M48 48c-4-8-3-17 3-26M65 43c-2-11 2-21 10-29M83 43c4-10 12-17 23-20" fill="none" stroke="#ffffff" stroke-width="7" stroke-linecap="round"/>
  <g fill="#ffffff" opacity=".92">
    <circle cx="48" cy="43" r="5"/>
    <circle cx="65" cy="36" r="4"/>
    <circle cx="86" cy="37" r="5"/>
  </g>
</svg>
